<?xml version="1.0" encoding="UTF-8" standalone="yes"?><svg xmlns="http://www.w3.org/2000/svg" xmlns:xlink="http://www.w3.org/1999/xlink" height="894px" style="width:1139px;height:894px;" version="1.1" viewBox="0 0 1139 894" width="1139px"><defs><filter height="300%" id="f1" width="300%" x="-1" y="-1"><feGaussianBlur result="blurOut" stdDeviation="2.0"/><feColorMatrix in="blurOut" result="blurOut2" type="matrix" values="0 0 0 0 0 0 0 0 0 0 0 0 0 0 0 0 0 0 .4 0"/><feOffset dx="4.0" dy="4.0" in="blurOut2" result="blurOut3"/><feBlend in="SourceGraphic" in2="blurOut3" mode="normal"/></filter></defs><g><text fill="#000000" font-family="sans-serif" font-size="14" font-weight="bold" lengthAdjust="spacingAndGlyphs" textLength="185" x="476.25" y="22.9951">PXE-based provisioning</text><line style="stroke: #A80036; stroke-width: 1.0; stroke-dasharray: 5.0,5.0;" x1="33" x2="33" y1="68.5938" y2="855.7813"/><line style="stroke: #A80036; stroke-width: 1.0; stroke-dasharray: 5.0,5.0;" x1="228" x2="228" y1="68.5938" y2="855.7813"/><line style="stroke: #A80036; stroke-width: 1.0; stroke-dasharray: 5.0,5.0;" x1="506.5" x2="506.5" y1="68.5938" y2="855.7813"/><line style="stroke: #A80036; stroke-width: 1.0; stroke-dasharray: 5.0,5.0;" x1="733" x2="733" y1="68.5938" y2="855.7813"/><line style="stroke: #A80036; stroke-width: 1.0; stroke-dasharray: 5.0,5.0;" x1="976.5" x2="976.5" y1="68.5938" y2="855.7813"/><line style="stroke: #A80036; stroke-width: 1.0; stroke-dasharray: 5.0,5.0;" x1="1042.5" x2="1042.5" y1="68.5938" y2="855.7813"/><line style="stroke: #A80036; stroke-width: 1.0; stroke-dasharray: 5.0,5.0;" x1="1105.5" x2="1105.5" y1="68.5938" y2="855.7813"/><rect fill="#FEFECE" filter="url(#f1)" height="30.2969" style="stroke: #A80036; stroke-width: 1.5;" width="46" x="8" y="33.2969"/><text fill="#000000" font-family="sans-serif" font-size="14" lengthAdjust="spacingAndGlyphs" textLength="32" x="15" y="53.292">User</text><rect fill="#FEFECE" filter="url(#f1)" height="30.2969" style="stroke: #A80036; stroke-width: 1.5;" width="46" x="8" y="854.7813"/><text fill="#000000" font-family="sans-serif" font-size="14" lengthAdjust="spacingAndGlyphs" textLength="32" x="15" y="874.7764">User</text><rect fill="#FEFECE" filter="url(#f1)" height="30.2969" style="stroke: #A80036; stroke-width: 1.5;" width="130" x="161" y="33.2969"/><text fill="#000000" font-family="sans-serif" font-size="14" lengthAdjust="spacingAndGlyphs" textLength="116" x="168" y="53.292">Provisioned Host</text><rect fill="#FEFECE" filter="url(#f1)" height="30.2969" style="stroke: #A80036; stroke-width: 1.5;" width="130" x="161" y="854.7813"/><text fill="#000000" font-family="sans-serif" font-size="14" lengthAdjust="spacingAndGlyphs" textLength="116" x="168" y="874.7764">Provisioned Host</text><rect fill="#FEFECE" filter="url(#f1)" height="30.2969" style="stroke: #A80036; stroke-width: 1.5;" width="75" x="467.5" y="33.2969"/><text fill="#000000" font-family="sans-serif" font-size="14" lengthAdjust="spacingAndGlyphs" textLength="61" x="474.5" y="53.292">Foreman</text><rect fill="#FEFECE" filter="url(#f1)" height="30.2969" style="stroke: #A80036; stroke-width: 1.5;" width="75" x="467.5" y="854.7813"/><text fill="#000000" font-family="sans-serif" font-size="14" lengthAdjust="spacingAndGlyphs" textLength="61" x="474.5" y="874.7764">Foreman</text><rect fill="#FEFECE" filter="url(#f1)" height="30.2969" style="stroke: #A80036; stroke-width: 1.5;" width="116" x="673" y="33.2969"/><text fill="#000000" font-family="sans-serif" font-size="14" lengthAdjust="spacingAndGlyphs" textLength="102" x="680" y="53.292">Foreman Proxy</text><rect fill="#FEFECE" filter="url(#f1)" height="30.2969" style="stroke: #A80036; stroke-width: 1.5;" width="116" x="673" y="854.7813"/><text fill="#000000" font-family="sans-serif" font-size="14" lengthAdjust="spacingAndGlyphs" textLength="102" x="680" y="874.7764">Foreman Proxy</text><rect fill="#FEFECE" filter="url(#f1)" height="30.2969" style="stroke: #A80036; stroke-width: 1.5;" width="49" x="950.5" y="33.2969"/><text fill="#000000" font-family="sans-serif" font-size="14" lengthAdjust="spacingAndGlyphs" textLength="35" x="957.5" y="53.292">TFTP</text><rect fill="#FEFECE" filter="url(#f1)" height="30.2969" style="stroke: #A80036; stroke-width: 1.5;" width="49" x="950.5" y="854.7813"/><text fill="#000000" font-family="sans-serif" font-size="14" lengthAdjust="spacingAndGlyphs" textLength="35" x="957.5" y="874.7764">TFTP</text><rect fill="#FEFECE" filter="url(#f1)" height="30.2969" style="stroke: #A80036; stroke-width: 1.5;" width="54" x="1013.5" y="33.2969"/><text fill="#000000" font-family="sans-serif" font-size="14" lengthAdjust="spacingAndGlyphs" textLength="40" x="1020.5" y="53.292">DHCP</text><rect fill="#FEFECE" filter="url(#f1)" height="30.2969" style="stroke: #A80036; stroke-width: 1.5;" width="54" x="1013.5" y="854.7813"/><text fill="#000000" font-family="sans-serif" font-size="14" lengthAdjust="spacingAndGlyphs" textLength="40" x="1020.5" y="874.7764">DHCP</text><rect fill="#FEFECE" filter="url(#f1)" height="30.2969" style="stroke: #A80036; stroke-width: 1.5;" width="44" x="1081.5" y="33.2969"/><text fill="#000000" font-family="sans-serif" font-size="14" lengthAdjust="spacingAndGlyphs" textLength="30" x="1088.5" y="53.292">DNS</text><rect fill="#FEFECE" filter="url(#f1)" height="30.2969" style="stroke: #A80036; stroke-width: 1.5;" width="44" x="1081.5" y="854.7813"/><text fill="#000000" font-family="sans-serif" font-size="14" lengthAdjust="spacingAndGlyphs" textLength="30" x="1088.5" y="874.7764">DNS</text><polygon fill="#A80036" points="495,95.5938,505,99.5938,495,103.5938,499,99.5938" style="stroke: #A80036; stroke-width: 1.0;"/><line style="stroke: #A80036; stroke-width: 1.0;" x1="33" x2="501" y1="99.5938" y2="99.5938"/><text fill="#000000" font-family="sans-serif" font-size="13" font-weight="bold" lengthAdjust="spacingAndGlyphs" textLength="9" x="40" y="94.6606">1</text><text fill="#000000" font-family="sans-serif" font-size="13" lengthAdjust="spacingAndGlyphs" textLength="119" x="53" y="94.6606">clicks on New Host</text><polygon fill="#A80036" points="721,124.7266,731,128.7266,721,132.7266,725,128.7266" style="stroke: #A80036; stroke-width: 1.0;"/><line style="stroke: #A80036; stroke-width: 1.0;" x1="507" x2="727" y1="128.7266" y2="128.7266"/><text fill="#000000" font-family="sans-serif" font-size="13" font-weight="bold" lengthAdjust="spacingAndGlyphs" textLength="9" x="514" y="123.7935">2</text><text fill="#000000" font-family="sans-serif" font-size="13" lengthAdjust="spacingAndGlyphs" textLength="155" x="527" y="123.7935">requests free IP address</text><polygon fill="#A80036" points="1030.5,153.8594,1040.5,157.8594,1030.5,161.8594,1034.5,157.8594" style="stroke: #A80036; stroke-width: 1.0;"/><line style="stroke: #A80036; stroke-width: 1.0;" x1="733" x2="1036.5" y1="157.8594" y2="157.8594"/><text fill="#000000" font-family="sans-serif" font-size="13" font-weight="bold" lengthAdjust="spacingAndGlyphs" textLength="9" x="740" y="152.9263">3</text><text fill="#000000" font-family="sans-serif" font-size="13" lengthAdjust="spacingAndGlyphs" textLength="151" x="753" y="152.9263">forwards free IP request</text><polygon fill="#A80036" points="495,182.9922,505,186.9922,495,190.9922,499,186.9922" style="stroke: #A80036; stroke-width: 1.0;"/><line style="stroke: #A80036; stroke-width: 1.0;" x1="33" x2="501" y1="186.9922" y2="186.9922"/><text fill="#000000" font-family="sans-serif" font-size="13" font-weight="bold" lengthAdjust="spacingAndGlyphs" textLength="9" x="40" y="182.0591">4</text><text fill="#000000" font-family="sans-serif" font-size="13" lengthAdjust="spacingAndGlyphs" textLength="267" x="53" y="182.0591">clicks Submit button in the New host form</text><polygon fill="#A80036" points="721,212.125,731,216.125,721,220.125,725,216.125" style="stroke: #A80036; stroke-width: 1.0;"/><line style="stroke: #A80036; stroke-width: 1.0;" x1="507" x2="727" y1="216.125" y2="216.125"/><text fill="#000000" font-family="sans-serif" font-size="13" font-weight="bold" lengthAdjust="spacingAndGlyphs" textLength="9" x="514" y="211.1919">5</text><text fill="#000000" font-family="sans-serif" font-size="13" lengthAdjust="spacingAndGlyphs" textLength="126" x="527" y="211.1919">creates TFTP record</text><polygon fill="#A80036" points="965,241.2578,975,245.2578,965,249.2578,969,245.2578" style="stroke: #A80036; stroke-width: 1.0;"/><line style="stroke: #A80036; stroke-width: 1.0;" x1="733" x2="971" y1="245.2578" y2="245.2578"/><text fill="#000000" font-family="sans-serif" font-size="13" font-weight="bold" lengthAdjust="spacingAndGlyphs" textLength="9" x="740" y="240.3247">6</text><text fill="#000000" font-family="sans-serif" font-size="13" lengthAdjust="spacingAndGlyphs" textLength="178" x="753" y="240.3247">drops TFTP configuration file</text><polygon fill="#A80036" points="721,270.3906,731,274.3906,721,278.3906,725,274.3906" style="stroke: #A80036; stroke-width: 1.0;"/><line style="stroke: #A80036; stroke-width: 1.0;" x1="507" x2="727" y1="274.3906" y2="274.3906"/><text fill="#000000" font-family="sans-serif" font-size="13" font-weight="bold" lengthAdjust="spacingAndGlyphs" textLength="9" x="514" y="269.4575">7</text><text fill="#000000" font-family="sans-serif" font-size="13" lengthAdjust="spacingAndGlyphs" textLength="165" x="527" y="269.4575">creates DHCP reservation</text><polygon fill="#A80036" points="1030.5,299.5234,1040.5,303.5234,1030.5,307.5234,1034.5,303.5234" style="stroke: #A80036; stroke-width: 1.0;"/><line style="stroke: #A80036; stroke-width: 1.0;" x1="733" x2="1036.5" y1="303.5234" y2="303.5234"/><text fill="#000000" font-family="sans-serif" font-size="13" font-weight="bold" lengthAdjust="spacingAndGlyphs" textLength="9" x="740" y="298.5903">8</text><text fill="#000000" font-family="sans-serif" font-size="13" lengthAdjust="spacingAndGlyphs" textLength="171" x="753" y="298.5903">forwards DHCP reservation</text><polygon fill="#A80036" points="721,328.6563,731,332.6563,721,336.6563,725,332.6563" style="stroke: #A80036; stroke-width: 1.0;"/><line style="stroke: #A80036; stroke-width: 1.0;" x1="507" x2="727" y1="332.6563" y2="332.6563"/><text fill="#000000" font-family="sans-serif" font-size="13" font-weight="bold" lengthAdjust="spacingAndGlyphs" textLength="9" x="514" y="327.7231">9</text><text fill="#000000" font-family="sans-serif" font-size="13" lengthAdjust="spacingAndGlyphs" textLength="133" x="527" y="327.7231">creates DNS records</text><polygon fill="#A80036" points="1093.5,357.7891,1103.5,361.7891,1093.5,365.7891,1097.5,361.7891" style="stroke: #A80036; stroke-width: 1.0;"/><line style="stroke: #A80036; stroke-width: 1.0;" x1="733" x2="1099.5" y1="361.7891" y2="361.7891"/><text fill="#000000" font-family="sans-serif" font-size="13" font-weight="bold" lengthAdjust="spacingAndGlyphs" textLength="18" x="740" y="356.856">10</text><text fill="#000000" font-family="sans-serif" font-size="13" lengthAdjust="spacingAndGlyphs" textLength="139" x="762" y="356.856">forwards DNS records</text><polygon fill="#FBFB77" filter="url(#f1)" points="413,374.9219,413,399.9219,596,399.9219,596,384.9219,586,374.9219,413,374.9219" style="stroke: #A80036; stroke-width: 1.0;"/><line style="stroke: #A80036; stroke-width: 1.0;" x1="586" x2="586" y1="374.9219" y2="384.9219"/><line style="stroke: #A80036; stroke-width: 1.0;" x1="596" x2="586" y1="384.9219" y2="384.9219"/><text fill="#000000" font-family="sans-serif" font-size="13" lengthAdjust="spacingAndGlyphs" textLength="162" x="419" y="391.9888">new host is in Build mode</text><rect fill="#EEEEEE" filter="url(#f1)" height="3" style="stroke: #EEEEEE; stroke-width: 1.0;" width="1131.5" x="3" y="429.6211"/><line style="stroke: #000000; stroke-width: 1.0;" x1="3" x2="1134.5" y1="429.6211" y2="429.6211"/><line style="stroke: #000000; stroke-width: 1.0;" x1="3" x2="1134.5" y1="432.6211" y2="432.6211"/><rect fill="#EEEEEE" filter="url(#f1)" height="23.1328" style="stroke: #000000; stroke-width: 2.0;" width="164" x="486.75" y="419.0547"/><text fill="#000000" font-family="sans-serif" font-size="13" font-weight="bold" lengthAdjust="spacingAndGlyphs" textLength="145" x="492.75" y="435.1216">Boot into Anaconda</text><polygon fill="#A80036" points="216,469.1875,226,473.1875,216,477.1875,220,473.1875" style="stroke: #A80036; stroke-width: 1.0;"/><line style="stroke: #A80036; stroke-width: 1.0;" x1="33" x2="222" y1="473.1875" y2="473.1875"/><text fill="#000000" font-family="sans-serif" font-size="13" font-weight="bold" lengthAdjust="spacingAndGlyphs" textLength="18" x="40" y="468.2544">11</text><text fill="#000000" font-family="sans-serif" font-size="13" lengthAdjust="spacingAndGlyphs" textLength="149" x="62" y="468.2544">powers on the machine</text><polygon fill="#A80036" points="1030.5,498.3203,1040.5,502.3203,1030.5,506.3203,1034.5,502.3203" style="stroke: #A80036; stroke-width: 1.0;"/><line style="stroke: #A80036; stroke-width: 1.0;" x1="228" x2="1036.5" y1="502.3203" y2="502.3203"/><text fill="#000000" font-family="sans-serif" font-size="13" font-weight="bold" lengthAdjust="spacingAndGlyphs" textLength="18" x="235" y="497.3872">12</text><text fill="#000000" font-family="sans-serif" font-size="13" lengthAdjust="spacingAndGlyphs" textLength="156" x="257" y="497.3872">requests the reserved IP</text><polygon fill="#A80036" points="965,527.4531,975,531.4531,965,535.4531,969,531.4531" style="stroke: #A80036; stroke-width: 1.0;"/><line style="stroke: #A80036; stroke-width: 1.0;" x1="228" x2="971" y1="531.4531" y2="531.4531"/><text fill="#000000" font-family="sans-serif" font-size="13" font-weight="bold" lengthAdjust="spacingAndGlyphs" textLength="18" x="235" y="526.52">13</text><text fill="#000000" font-family="sans-serif" font-size="13" lengthAdjust="spacingAndGlyphs" textLength="222" x="257" y="526.52">downloads Anaconda image/kernel</text><polygon fill="#A80036" points="495,556.5859,505,560.5859,495,564.5859,499,560.5859" style="stroke: #A80036; stroke-width: 1.0;"/><line style="stroke: #A80036; stroke-width: 1.0;" x1="228" x2="501" y1="560.5859" y2="560.5859"/><text fill="#000000" font-family="sans-serif" font-size="13" font-weight="bold" lengthAdjust="spacingAndGlyphs" textLength="18" x="235" y="555.6528">14</text><text fill="#000000" font-family="sans-serif" font-size="13" lengthAdjust="spacingAndGlyphs" textLength="233" x="257" y="555.6528">request Kickstart (template renders)</text><polygon fill="#FBFB77" filter="url(#f1)" points="182,573.7188,182,598.7188,270,598.7188,270,583.7188,260,573.7188,182,573.7188" style="stroke: #A80036; stroke-width: 1.0;"/><line style="stroke: #A80036; stroke-width: 1.0;" x1="260" x2="260" y1="573.7188" y2="583.7188"/><line style="stroke: #A80036; stroke-width: 1.0;" x1="270" x2="260" y1="583.7188" y2="583.7188"/><text fill="#000000" font-family="sans-serif" font-size="13" lengthAdjust="spacingAndGlyphs" textLength="67" x="188" y="590.7856">installs OS</text><polygon fill="#FBFB77" filter="url(#f1)" points="43,612.8516,43,637.8516,409,637.8516,409,622.8516,399,612.8516,43,612.8516" style="stroke: #A80036; stroke-width: 1.0;"/><line style="stroke: #A80036; stroke-width: 1.0;" x1="399" x2="399" y1="612.8516" y2="622.8516"/><line style="stroke: #A80036; stroke-width: 1.0;" x1="409" x2="399" y1="622.8516" y2="622.8516"/><text fill="#000000" font-family="sans-serif" font-size="13" lengthAdjust="spacingAndGlyphs" textLength="345" x="49" y="629.9185">runs %post (subscription-manager, puppet bootstrap)</text><polygon fill="#A80036" points="495,663.9844,505,667.9844,495,671.9844,499,667.9844" style="stroke: #A80036; stroke-width: 1.0;"/><line style="stroke: #A80036; stroke-width: 1.0;" x1="228" x2="501" y1="667.9844" y2="667.9844"/><text fill="#000000" font-family="sans-serif" font-size="13" font-weight="bold" lengthAdjust="spacingAndGlyphs" textLength="18" x="235" y="663.0513">15</text><text fill="#000000" font-family="sans-serif" font-size="13" lengthAdjust="spacingAndGlyphs" textLength="128" x="257" y="663.0513">turns off build mode</text><polygon fill="#A80036" points="721,693.1172,731,697.1172,721,701.1172,725,697.1172" style="stroke: #A80036; stroke-width: 1.0;"/><line style="stroke: #A80036; stroke-width: 1.0;" x1="507" x2="727" y1="697.1172" y2="697.1172"/><text fill="#000000" font-family="sans-serif" font-size="13" font-weight="bold" lengthAdjust="spacingAndGlyphs" textLength="18" x="514" y="692.1841">16</text><text fill="#000000" font-family="sans-serif" font-size="13" lengthAdjust="spacingAndGlyphs" textLength="180" x="536" y="692.1841">sends TFTP removal request</text><polygon fill="#A80036" points="965,722.25,975,726.25,965,730.25,969,726.25" style="stroke: #A80036; stroke-width: 1.0;"/><line style="stroke: #A80036; stroke-width: 1.0;" x1="733" x2="971" y1="726.25" y2="726.25"/><text fill="#000000" font-family="sans-serif" font-size="13" font-weight="bold" lengthAdjust="spacingAndGlyphs" textLength="18" x="740" y="721.3169">17</text><text fill="#000000" font-family="sans-serif" font-size="13" lengthAdjust="spacingAndGlyphs" textLength="198" x="762" y="721.3169">removes TFTP configuration file</text><polygon fill="#FBFB77" filter="url(#f1)" points="191,739.3828,191,764.3828,261,764.3828,261,749.3828,251,739.3828,191,739.3828" style="stroke: #A80036; stroke-width: 1.0;"/><line style="stroke: #A80036; stroke-width: 1.0;" x1="251" x2="251" y1="739.3828" y2="749.3828"/><line style="stroke: #A80036; stroke-width: 1.0;" x1="261" x2="251" y1="749.3828" y2="749.3828"/><text fill="#000000" font-family="sans-serif" font-size="13" lengthAdjust="spacingAndGlyphs" textLength="49" x="197" y="756.4497">reboots</text><rect fill="#EEEEEE" filter="url(#f1)" height="3" style="stroke: #EEEEEE; stroke-width: 1.0;" width="1131.5" x="3" y="794.082"/><line style="stroke: #000000; stroke-width: 1.0;" x1="3" x2="1134.5" y1="794.082" y2="794.082"/><line style="stroke: #000000; stroke-width: 1.0;" x1="3" x2="1134.5" y1="797.082" y2="797.082"/><rect fill="#EEEEEE" filter="url(#f1)" height="23.1328" style="stroke: #000000; stroke-width: 2.0;" width="91" x="523.25" y="783.5156"/><text fill="#000000" font-family="sans-serif" font-size="13" font-weight="bold" lengthAdjust="spacingAndGlyphs" textLength="72" x="529.25" y="799.5825">First boot</text><polygon fill="#A80036" points="1030.5,833.6484,1040.5,837.6484,1030.5,841.6484,1034.5,837.6484" style="stroke: #A80036; stroke-width: 1.0;"/><line style="stroke: #A80036; stroke-width: 1.0;" x1="228" x2="1036.5" y1="837.6484" y2="837.6484"/><text fill="#000000" font-family="sans-serif" font-size="13" font-weight="bold" lengthAdjust="spacingAndGlyphs" textLength="18" x="235" y="832.7153">18</text><text fill="#000000" font-family="sans-serif" font-size="13" lengthAdjust="spacingAndGlyphs" textLength="156" x="257" y="832.7153">requests the reserved IP</text></g></svg>