<?xml version="1.0" encoding="UTF-8" standalone="yes"?><svg xmlns="http://www.w3.org/2000/svg" xmlns:xlink="http://www.w3.org/1999/xlink" height="923px" style="width:1171px;height:923px;" version="1.1" viewBox="0 0 1171 923" width="1171px"><defs><filter height="300%" id="f1" width="300%" x="-1" y="-1"><feGaussianBlur result="blurOut" stdDeviation="2.0"/><feColorMatrix in="blurOut" result="blurOut2" type="matrix" values="0 0 0 0 0 0 0 0 0 0 0 0 0 0 0 0 0 0 .4 0"/><feOffset dx="4.0" dy="4.0" in="blurOut2" result="blurOut3"/><feBlend in="SourceGraphic" in2="blurOut3" mode="normal"/></filter></defs><g><text fill="#000000" font-family="sans-serif" font-size="14" font-weight="bold" lengthAdjust="spacingAndGlyphs" textLength="259" x="455.25" y="22.9951">PXE-based provisioning on libvirt</text><line style="stroke: #A80036; stroke-width: 1.0; stroke-dasharray: 5.0,5.0;" x1="91" x2="91" y1="68.5938" y2="884.9141"/><line style="stroke: #A80036; stroke-width: 1.0; stroke-dasharray: 5.0,5.0;" x1="193" x2="193" y1="68.5938" y2="884.9141"/><line style="stroke: #A80036; stroke-width: 1.0; stroke-dasharray: 5.0,5.0;" x1="471.5" x2="471.5" y1="68.5938" y2="884.9141"/><line style="stroke: #A80036; stroke-width: 1.0; stroke-dasharray: 5.0,5.0;" x1="650" x2="650" y1="68.5938" y2="884.9141"/><line style="stroke: #A80036; stroke-width: 1.0; stroke-dasharray: 5.0,5.0;" x1="765" x2="765" y1="68.5938" y2="884.9141"/><line style="stroke: #A80036; stroke-width: 1.0; stroke-dasharray: 5.0,5.0;" x1="1008.5" x2="1008.5" y1="68.5938" y2="884.9141"/><line style="stroke: #A80036; stroke-width: 1.0; stroke-dasharray: 5.0,5.0;" x1="1074.5" x2="1074.5" y1="68.5938" y2="884.9141"/><line style="stroke: #A80036; stroke-width: 1.0; stroke-dasharray: 5.0,5.0;" x1="1137.5" x2="1137.5" y1="68.5938" y2="884.9141"/><rect fill="#FEFECE" filter="url(#f1)" height="30.2969" style="stroke: #A80036; stroke-width: 1.5;" width="46" x="66" y="33.2969"/><text fill="#000000" font-family="sans-serif" font-size="14" lengthAdjust="spacingAndGlyphs" textLength="32" x="73" y="53.292">User</text><rect fill="#FEFECE" filter="url(#f1)" height="30.2969" style="stroke: #A80036; stroke-width: 1.5;" width="46" x="66" y="883.9141"/><text fill="#000000" font-family="sans-serif" font-size="14" lengthAdjust="spacingAndGlyphs" textLength="32" x="73" y="903.9092">User</text><rect fill="#FEFECE" filter="url(#f1)" height="30.2969" style="stroke: #A80036; stroke-width: 1.5;" width="130" x="126" y="33.2969"/><text fill="#000000" font-family="sans-serif" font-size="14" lengthAdjust="spacingAndGlyphs" textLength="116" x="133" y="53.292">Provisioned Host</text><rect fill="#FEFECE" filter="url(#f1)" height="30.2969" style="stroke: #A80036; stroke-width: 1.5;" width="130" x="126" y="883.9141"/><text fill="#000000" font-family="sans-serif" font-size="14" lengthAdjust="spacingAndGlyphs" textLength="116" x="133" y="903.9092">Provisioned Host</text><rect fill="#FEFECE" filter="url(#f1)" height="30.2969" style="stroke: #A80036; stroke-width: 1.5;" width="75" x="432.5" y="33.2969"/><text fill="#000000" font-family="sans-serif" font-size="14" lengthAdjust="spacingAndGlyphs" textLength="61" x="439.5" y="53.292">Foreman</text><rect fill="#FEFECE" filter="url(#f1)" height="30.2969" style="stroke: #A80036; stroke-width: 1.5;" width="75" x="432.5" y="883.9141"/><text fill="#000000" font-family="sans-serif" font-size="14" lengthAdjust="spacingAndGlyphs" textLength="61" x="439.5" y="903.9092">Foreman</text><rect fill="#99FF99" filter="url(#f1)" height="30.2969" style="stroke: #A80036; stroke-width: 1.5;" width="86" x="605" y="33.2969"/><text fill="#000000" font-family="sans-serif" font-size="14" lengthAdjust="spacingAndGlyphs" textLength="72" x="612" y="53.292">Hypervisor</text><rect fill="#99FF99" filter="url(#f1)" height="30.2969" style="stroke: #A80036; stroke-width: 1.5;" width="86" x="605" y="883.9141"/><text fill="#000000" font-family="sans-serif" font-size="14" lengthAdjust="spacingAndGlyphs" textLength="72" x="612" y="903.9092">Hypervisor</text><rect fill="#FEFECE" filter="url(#f1)" height="30.2969" style="stroke: #A80036; stroke-width: 1.5;" width="116" x="705" y="33.2969"/><text fill="#000000" font-family="sans-serif" font-size="14" lengthAdjust="spacingAndGlyphs" textLength="102" x="712" y="53.292">Foreman Proxy</text><rect fill="#FEFECE" filter="url(#f1)" height="30.2969" style="stroke: #A80036; stroke-width: 1.5;" width="116" x="705" y="883.9141"/><text fill="#000000" font-family="sans-serif" font-size="14" lengthAdjust="spacingAndGlyphs" textLength="102" x="712" y="903.9092">Foreman Proxy</text><rect fill="#FEFECE" filter="url(#f1)" height="30.2969" style="stroke: #A80036; stroke-width: 1.5;" width="49" x="982.5" y="33.2969"/><text fill="#000000" font-family="sans-serif" font-size="14" lengthAdjust="spacingAndGlyphs" textLength="35" x="989.5" y="53.292">TFTP</text><rect fill="#FEFECE" filter="url(#f1)" height="30.2969" style="stroke: #A80036; stroke-width: 1.5;" width="49" x="982.5" y="883.9141"/><text fill="#000000" font-family="sans-serif" font-size="14" lengthAdjust="spacingAndGlyphs" textLength="35" x="989.5" y="903.9092">TFTP</text><rect fill="#FEFECE" filter="url(#f1)" height="30.2969" style="stroke: #A80036; stroke-width: 1.5;" width="54" x="1045.5" y="33.2969"/><text fill="#000000" font-family="sans-serif" font-size="14" lengthAdjust="spacingAndGlyphs" textLength="40" x="1052.5" y="53.292">DHCP</text><rect fill="#FEFECE" filter="url(#f1)" height="30.2969" style="stroke: #A80036; stroke-width: 1.5;" width="54" x="1045.5" y="883.9141"/><text fill="#000000" font-family="sans-serif" font-size="14" lengthAdjust="spacingAndGlyphs" textLength="40" x="1052.5" y="903.9092">DHCP</text><rect fill="#FEFECE" filter="url(#f1)" height="30.2969" style="stroke: #A80036; stroke-width: 1.5;" width="44" x="1113.5" y="33.2969"/><text fill="#000000" font-family="sans-serif" font-size="14" lengthAdjust="spacingAndGlyphs" textLength="30" x="1120.5" y="53.292">DNS</text><rect fill="#FEFECE" filter="url(#f1)" height="30.2969" style="stroke: #A80036; stroke-width: 1.5;" width="44" x="1113.5" y="883.9141"/><text fill="#000000" font-family="sans-serif" font-size="14" lengthAdjust="spacingAndGlyphs" textLength="30" x="1120.5" y="903.9092">DNS</text><polygon fill="#A80036" points="460,95.5938,470,99.5938,460,103.5938,464,99.5938" style="stroke: #A80036; stroke-width: 1.0;"/><line style="stroke: #A80036; stroke-width: 1.0;" x1="91" x2="466" y1="99.5938" y2="99.5938"/><text fill="#000000" font-family="sans-serif" font-size="13" font-weight="bold" lengthAdjust="spacingAndGlyphs" textLength="9" x="98" y="94.6606">1</text><text fill="#000000" font-family="sans-serif" font-size="13" lengthAdjust="spacingAndGlyphs" textLength="119" x="111" y="94.6606">clicks on New Host</text><polygon fill="#A80036" points="753,124.7266,763,128.7266,753,132.7266,757,128.7266" style="stroke: #A80036; stroke-width: 1.0;"/><line style="stroke: #A80036; stroke-width: 1.0;" x1="472" x2="759" y1="128.7266" y2="128.7266"/><text fill="#000000" font-family="sans-serif" font-size="13" font-weight="bold" lengthAdjust="spacingAndGlyphs" textLength="9" x="479" y="123.7935">2</text><text fill="#000000" font-family="sans-serif" font-size="13" lengthAdjust="spacingAndGlyphs" textLength="155" x="492" y="123.7935">requests free IP address</text><polygon fill="#A80036" points="1062.5,153.8594,1072.5,157.8594,1062.5,161.8594,1066.5,157.8594" style="stroke: #A80036; stroke-width: 1.0;"/><line style="stroke: #A80036; stroke-width: 1.0;" x1="765" x2="1068.5" y1="157.8594" y2="157.8594"/><text fill="#000000" font-family="sans-serif" font-size="13" font-weight="bold" lengthAdjust="spacingAndGlyphs" textLength="9" x="772" y="152.9263">3</text><text fill="#000000" font-family="sans-serif" font-size="13" lengthAdjust="spacingAndGlyphs" textLength="151" x="785" y="152.9263">forwards free IP request</text><polygon fill="#A80036" points="460,182.9922,470,186.9922,460,190.9922,464,186.9922" style="stroke: #A80036; stroke-width: 1.0;"/><line style="stroke: #A80036; stroke-width: 1.0;" x1="91" x2="466" y1="186.9922" y2="186.9922"/><text fill="#000000" font-family="sans-serif" font-size="13" font-weight="bold" lengthAdjust="spacingAndGlyphs" textLength="9" x="98" y="182.0591">4</text><text fill="#000000" font-family="sans-serif" font-size="13" lengthAdjust="spacingAndGlyphs" textLength="267" x="111" y="182.0591">clicks Submit button in the New host form</text><polygon fill="#288A01" points="638,212.125,648,216.125,638,220.125,642,216.125" style="stroke: #288A01; stroke-width: 1.0;"/><line style="stroke: #288A01; stroke-width: 1.0;" x1="472" x2="644" y1="216.125" y2="216.125"/><text fill="#000000" font-family="sans-serif" font-size="13" font-weight="bold" lengthAdjust="spacingAndGlyphs" textLength="9" x="479" y="211.1919">5</text><text fill="#000000" font-family="sans-serif" font-size="13" lengthAdjust="spacingAndGlyphs" textLength="141" x="492" y="211.1919">creates VM, gets MAC</text><polygon fill="#A80036" points="753,241.2578,763,245.2578,753,249.2578,757,245.2578" style="stroke: #A80036; stroke-width: 1.0;"/><line style="stroke: #A80036; stroke-width: 1.0;" x1="472" x2="759" y1="245.2578" y2="245.2578"/><text fill="#000000" font-family="sans-serif" font-size="13" font-weight="bold" lengthAdjust="spacingAndGlyphs" textLength="9" x="479" y="240.3247">6</text><text fill="#000000" font-family="sans-serif" font-size="13" lengthAdjust="spacingAndGlyphs" textLength="126" x="492" y="240.3247">creates TFTP record</text><polygon fill="#A80036" points="997,270.3906,1007,274.3906,997,278.3906,1001,274.3906" style="stroke: #A80036; stroke-width: 1.0;"/><line style="stroke: #A80036; stroke-width: 1.0;" x1="765" x2="1003" y1="274.3906" y2="274.3906"/><text fill="#000000" font-family="sans-serif" font-size="13" font-weight="bold" lengthAdjust="spacingAndGlyphs" textLength="9" x="772" y="269.4575">7</text><text fill="#000000" font-family="sans-serif" font-size="13" lengthAdjust="spacingAndGlyphs" textLength="178" x="785" y="269.4575">drops TFTP configuration file</text><polygon fill="#A80036" points="753,299.5234,763,303.5234,753,307.5234,757,303.5234" style="stroke: #A80036; stroke-width: 1.0;"/><line style="stroke: #A80036; stroke-width: 1.0;" x1="472" x2="759" y1="303.5234" y2="303.5234"/><text fill="#000000" font-family="sans-serif" font-size="13" font-weight="bold" lengthAdjust="spacingAndGlyphs" textLength="9" x="479" y="298.5903">8</text><text fill="#000000" font-family="sans-serif" font-size="13" lengthAdjust="spacingAndGlyphs" textLength="165" x="492" y="298.5903">creates DHCP reservation</text><polygon fill="#A80036" points="1062.5,328.6563,1072.5,332.6563,1062.5,336.6563,1066.5,332.6563" style="stroke: #A80036; stroke-width: 1.0;"/><line style="stroke: #A80036; stroke-width: 1.0;" x1="765" x2="1068.5" y1="332.6563" y2="332.6563"/><text fill="#000000" font-family="sans-serif" font-size="13" font-weight="bold" lengthAdjust="spacingAndGlyphs" textLength="9" x="772" y="327.7231">9</text><text fill="#000000" font-family="sans-serif" font-size="13" lengthAdjust="spacingAndGlyphs" textLength="171" x="785" y="327.7231">forwards DHCP reservation</text><polygon fill="#A80036" points="753,357.7891,763,361.7891,753,365.7891,757,361.7891" style="stroke: #A80036; stroke-width: 1.0;"/><line style="stroke: #A80036; stroke-width: 1.0;" x1="472" x2="759" y1="361.7891" y2="361.7891"/><text fill="#000000" font-family="sans-serif" font-size="13" font-weight="bold" lengthAdjust="spacingAndGlyphs" textLength="18" x="479" y="356.856">10</text><text fill="#000000" font-family="sans-serif" font-size="13" lengthAdjust="spacingAndGlyphs" textLength="133" x="501" y="356.856">creates DNS records</text><polygon fill="#A80036" points="1125.5,386.9219,1135.5,390.9219,1125.5,394.9219,1129.5,390.9219" style="stroke: #A80036; stroke-width: 1.0;"/><line style="stroke: #A80036; stroke-width: 1.0;" x1="765" x2="1131.5" y1="390.9219" y2="390.9219"/><text fill="#000000" font-family="sans-serif" font-size="13" font-weight="bold" lengthAdjust="spacingAndGlyphs" textLength="18" x="772" y="385.9888">11</text><text fill="#000000" font-family="sans-serif" font-size="13" lengthAdjust="spacingAndGlyphs" textLength="139" x="794" y="385.9888">forwards DNS records</text><polygon fill="#FBFB77" filter="url(#f1)" points="378,404.0547,378,429.0547,561,429.0547,561,414.0547,551,404.0547,378,404.0547" style="stroke: #A80036; stroke-width: 1.0;"/><line style="stroke: #A80036; stroke-width: 1.0;" x1="551" x2="551" y1="404.0547" y2="414.0547"/><line style="stroke: #A80036; stroke-width: 1.0;" x1="561" x2="551" y1="414.0547" y2="414.0547"/><text fill="#000000" font-family="sans-serif" font-size="13" lengthAdjust="spacingAndGlyphs" textLength="162" x="384" y="421.1216">new host is in Build mode</text><rect fill="#EEEEEE" filter="url(#f1)" height="3" style="stroke: #EEEEEE; stroke-width: 1.0;" width="1163.5" x="3" y="458.7539"/><line style="stroke: #000000; stroke-width: 1.0;" x1="3" x2="1166.5" y1="458.7539" y2="458.7539"/><line style="stroke: #000000; stroke-width: 1.0;" x1="3" x2="1166.5" y1="461.7539" y2="461.7539"/><rect fill="#EEEEEE" filter="url(#f1)" height="23.1328" style="stroke: #000000; stroke-width: 2.0;" width="164" x="502.75" y="448.1875"/><text fill="#000000" font-family="sans-serif" font-size="13" font-weight="bold" lengthAdjust="spacingAndGlyphs" textLength="145" x="508.75" y="464.2544">Boot into Anaconda</text><polygon fill="#288A01" points="638,498.3203,648,502.3203,638,506.3203,642,502.3203" style="stroke: #288A01; stroke-width: 1.0;"/><line style="stroke: #288A01; stroke-width: 1.0;" x1="472" x2="644" y1="502.3203" y2="502.3203"/><text fill="#000000" font-family="sans-serif" font-size="13" font-weight="bold" lengthAdjust="spacingAndGlyphs" textLength="18" x="479" y="497.3872">12</text><text fill="#000000" font-family="sans-serif" font-size="13" lengthAdjust="spacingAndGlyphs" textLength="122" x="501" y="497.3872">powers on the host</text><polygon fill="#A80036" points="1062.5,527.4531,1072.5,531.4531,1062.5,535.4531,1066.5,531.4531" style="stroke: #A80036; stroke-width: 1.0;"/><line style="stroke: #A80036; stroke-width: 1.0;" x1="193" x2="1068.5" y1="531.4531" y2="531.4531"/><text fill="#000000" font-family="sans-serif" font-size="13" font-weight="bold" lengthAdjust="spacingAndGlyphs" textLength="18" x="200" y="526.52">13</text><text fill="#000000" font-family="sans-serif" font-size="13" lengthAdjust="spacingAndGlyphs" textLength="156" x="222" y="526.52">requests the reserved IP</text><polygon fill="#A80036" points="997,556.5859,1007,560.5859,997,564.5859,1001,560.5859" style="stroke: #A80036; stroke-width: 1.0;"/><line style="stroke: #A80036; stroke-width: 1.0;" x1="193" x2="1003" y1="560.5859" y2="560.5859"/><text fill="#000000" font-family="sans-serif" font-size="13" font-weight="bold" lengthAdjust="spacingAndGlyphs" textLength="18" x="200" y="555.6528">14</text><text fill="#000000" font-family="sans-serif" font-size="13" lengthAdjust="spacingAndGlyphs" textLength="222" x="222" y="555.6528">downloads Anaconda image/kernel</text><polygon fill="#A80036" points="460,585.7188,470,589.7188,460,593.7188,464,589.7188" style="stroke: #A80036; stroke-width: 1.0;"/><line style="stroke: #A80036; stroke-width: 1.0;" x1="193" x2="466" y1="589.7188" y2="589.7188"/><text fill="#000000" font-family="sans-serif" font-size="13" font-weight="bold" lengthAdjust="spacingAndGlyphs" textLength="18" x="200" y="584.7856">15</text><text fill="#000000" font-family="sans-serif" font-size="13" lengthAdjust="spacingAndGlyphs" textLength="233" x="222" y="584.7856">request Kickstart (template renders)</text><polygon fill="#FBFB77" filter="url(#f1)" points="147,602.8516,147,627.8516,235,627.8516,235,612.8516,225,602.8516,147,602.8516" style="stroke: #A80036; stroke-width: 1.0;"/><line style="stroke: #A80036; stroke-width: 1.0;" x1="225" x2="225" y1="602.8516" y2="612.8516"/><line style="stroke: #A80036; stroke-width: 1.0;" x1="235" x2="225" y1="612.8516" y2="612.8516"/><text fill="#000000" font-family="sans-serif" font-size="13" lengthAdjust="spacingAndGlyphs" textLength="67" x="153" y="619.9185">installs OS</text><polygon fill="#FBFB77" filter="url(#f1)" points="8,641.9844,8,666.9844,374,666.9844,374,651.9844,364,641.9844,8,641.9844" style="stroke: #A80036; stroke-width: 1.0;"/><line style="stroke: #A80036; stroke-width: 1.0;" x1="364" x2="364" y1="641.9844" y2="651.9844"/><line style="stroke: #A80036; stroke-width: 1.0;" x1="374" x2="364" y1="651.9844" y2="651.9844"/><text fill="#000000" font-family="sans-serif" font-size="13" lengthAdjust="spacingAndGlyphs" textLength="345" x="14" y="659.0513">runs %post (subscription-manager, puppet bootstrap)</text><polygon fill="#A80036" points="460,693.1172,470,697.1172,460,701.1172,464,697.1172" style="stroke: #A80036; stroke-width: 1.0;"/><line style="stroke: #A80036; stroke-width: 1.0;" x1="193" x2="466" y1="697.1172" y2="697.1172"/><text fill="#000000" font-family="sans-serif" font-size="13" font-weight="bold" lengthAdjust="spacingAndGlyphs" textLength="18" x="200" y="692.1841">16</text><text fill="#000000" font-family="sans-serif" font-size="13" lengthAdjust="spacingAndGlyphs" textLength="128" x="222" y="692.1841">turns off build mode</text><polygon fill="#A80036" points="753,722.25,763,726.25,753,730.25,757,726.25" style="stroke: #A80036; stroke-width: 1.0;"/><line style="stroke: #A80036; stroke-width: 1.0;" x1="472" x2="759" y1="726.25" y2="726.25"/><text fill="#000000" font-family="sans-serif" font-size="13" font-weight="bold" lengthAdjust="spacingAndGlyphs" textLength="18" x="479" y="721.3169">17</text><text fill="#000000" font-family="sans-serif" font-size="13" lengthAdjust="spacingAndGlyphs" textLength="180" x="501" y="721.3169">sends TFTP removal request</text><polygon fill="#A80036" points="997,751.3828,1007,755.3828,997,759.3828,1001,755.3828" style="stroke: #A80036; stroke-width: 1.0;"/><line style="stroke: #A80036; stroke-width: 1.0;" x1="765" x2="1003" y1="755.3828" y2="755.3828"/><text fill="#000000" font-family="sans-serif" font-size="13" font-weight="bold" lengthAdjust="spacingAndGlyphs" textLength="18" x="772" y="750.4497">18</text><text fill="#000000" font-family="sans-serif" font-size="13" lengthAdjust="spacingAndGlyphs" textLength="198" x="794" y="750.4497">removes TFTP configuration file</text><polygon fill="#FBFB77" filter="url(#f1)" points="156,768.5156,156,793.5156,226,793.5156,226,778.5156,216,768.5156,156,768.5156" style="stroke: #A80036; stroke-width: 1.0;"/><line style="stroke: #A80036; stroke-width: 1.0;" x1="216" x2="216" y1="768.5156" y2="778.5156"/><line style="stroke: #A80036; stroke-width: 1.0;" x1="226" x2="216" y1="778.5156" y2="778.5156"/><text fill="#000000" font-family="sans-serif" font-size="13" lengthAdjust="spacingAndGlyphs" textLength="49" x="162" y="785.5825">reboots</text><rect fill="#EEEEEE" filter="url(#f1)" height="3" style="stroke: #EEEEEE; stroke-width: 1.0;" width="1163.5" x="3" y="823.2148"/><line style="stroke: #000000; stroke-width: 1.0;" x1="3" x2="1166.5" y1="823.2148" y2="823.2148"/><line style="stroke: #000000; stroke-width: 1.0;" x1="3" x2="1166.5" y1="826.2148" y2="826.2148"/><rect fill="#EEEEEE" filter="url(#f1)" height="23.1328" style="stroke: #000000; stroke-width: 2.0;" width="91" x="539.25" y="812.6484"/><text fill="#000000" font-family="sans-serif" font-size="13" font-weight="bold" lengthAdjust="spacingAndGlyphs" textLength="72" x="545.25" y="828.7153">First boot</text><polygon fill="#A80036" points="1062.5,862.7813,1072.5,866.7813,1062.5,870.7813,1066.5,866.7813" style="stroke: #A80036; stroke-width: 1.0;"/><line style="stroke: #A80036; stroke-width: 1.0;" x1="193" x2="1068.5" y1="866.7813" y2="866.7813"/><text fill="#000000" font-family="sans-serif" font-size="13" font-weight="bold" lengthAdjust="spacingAndGlyphs" textLength="18" x="200" y="861.8481">19</text><text fill="#000000" font-family="sans-serif" font-size="13" lengthAdjust="spacingAndGlyphs" textLength="156" x="222" y="861.8481">requests the reserved IP</text></g></svg>