<?xml version="1.0" encoding="UTF-8" standalone="yes"?><svg xmlns="http://www.w3.org/2000/svg" xmlns:xlink="http://www.w3.org/1999/xlink" height="559px" style="width:831px;height:559px;" version="1.1" viewBox="0 0 831 559" width="831px"><defs><filter height="300%" id="f1" width="300%" x="-1" y="-1"><feGaussianBlur result="blurOut" stdDeviation="2.0"/><feColorMatrix in="blurOut" result="blurOut2" type="matrix" values="0 0 0 0 0 0 0 0 0 0 0 0 0 0 0 0 0 0 .4 0"/><feOffset dx="4.0" dy="4.0" in="blurOut2" result="blurOut3"/><feBlend in="SourceGraphic" in2="blurOut3" mode="normal"/></filter></defs><g><text fill="#000000" font-family="sans-serif" font-size="14" font-weight="bold" lengthAdjust="spacingAndGlyphs" textLength="275" x="277" y="22.9951">Cloud-based provisioning over ssh</text><line style="stroke: #A80036; stroke-width: 1.0; stroke-dasharray: 5.0,5.0;" x1="33" x2="33" y1="68.5938" y2="521.3203"/><line style="stroke: #A80036; stroke-width: 1.0; stroke-dasharray: 5.0,5.0;" x1="148" x2="148" y1="68.5938" y2="521.3203"/><line style="stroke: #A80036; stroke-width: 1.0; stroke-dasharray: 5.0,5.0;" x1="368.5" x2="368.5" y1="68.5938" y2="521.3203"/><line style="stroke: #A80036; stroke-width: 1.0; stroke-dasharray: 5.0,5.0;" x1="539" x2="539" y1="68.5938" y2="521.3203"/><line style="stroke: #A80036; stroke-width: 1.0; stroke-dasharray: 5.0,5.0;" x1="686" x2="686" y1="68.5938" y2="521.3203"/><line style="stroke: #A80036; stroke-width: 1.0; stroke-dasharray: 5.0,5.0;" x1="797" x2="797" y1="68.5938" y2="521.3203"/><rect fill="#FEFECE" filter="url(#f1)" height="30.2969" style="stroke: #A80036; stroke-width: 1.5;" width="46" x="8" y="33.2969"/><text fill="#000000" font-family="sans-serif" font-size="14" lengthAdjust="spacingAndGlyphs" textLength="32" x="15" y="53.292">User</text><rect fill="#FEFECE" filter="url(#f1)" height="30.2969" style="stroke: #A80036; stroke-width: 1.5;" width="46" x="8" y="520.3203"/><text fill="#000000" font-family="sans-serif" font-size="14" lengthAdjust="spacingAndGlyphs" textLength="32" x="15" y="540.3154">User</text><rect fill="#FEFECE" filter="url(#f1)" height="30.2969" style="stroke: #A80036; stroke-width: 1.5;" width="157" x="68" y="33.2969"/><text fill="#000000" font-family="sans-serif" font-size="14" lengthAdjust="spacingAndGlyphs" textLength="143" x="75" y="53.292">Provisioned Instance</text><rect fill="#FEFECE" filter="url(#f1)" height="30.2969" style="stroke: #A80036; stroke-width: 1.5;" width="157" x="68" y="520.3203"/><text fill="#000000" font-family="sans-serif" font-size="14" lengthAdjust="spacingAndGlyphs" textLength="143" x="75" y="540.3154">Provisioned Instance</text><rect fill="#FEFECE" filter="url(#f1)" height="30.2969" style="stroke: #A80036; stroke-width: 1.5;" width="75" x="329.5" y="33.2969"/><text fill="#000000" font-family="sans-serif" font-size="14" lengthAdjust="spacingAndGlyphs" textLength="61" x="336.5" y="53.292">Foreman</text><rect fill="#FEFECE" filter="url(#f1)" height="30.2969" style="stroke: #A80036; stroke-width: 1.5;" width="75" x="329.5" y="520.3203"/><text fill="#000000" font-family="sans-serif" font-size="14" lengthAdjust="spacingAndGlyphs" textLength="61" x="336.5" y="540.3154">Foreman</text><rect fill="#FEFECE" filter="url(#f1)" height="30.2969" style="stroke: #A80036; stroke-width: 1.5;" width="116" x="479" y="33.2969"/><text fill="#000000" font-family="sans-serif" font-size="14" lengthAdjust="spacingAndGlyphs" textLength="102" x="486" y="53.292">Foreman Proxy</text><rect fill="#FEFECE" filter="url(#f1)" height="30.2969" style="stroke: #A80036; stroke-width: 1.5;" width="116" x="479" y="520.3203"/><text fill="#000000" font-family="sans-serif" font-size="14" lengthAdjust="spacingAndGlyphs" textLength="102" x="486" y="540.3154">Foreman Proxy</text><rect fill="#FEFECE" filter="url(#f1)" height="30.2969" style="stroke: #A80036; stroke-width: 1.5;" width="150" x="609" y="33.2969"/><text fill="#000000" font-family="sans-serif" font-size="14" lengthAdjust="spacingAndGlyphs" textLength="136" x="616" y="53.292">Infrastructure Cloud</text><rect fill="#FEFECE" filter="url(#f1)" height="30.2969" style="stroke: #A80036; stroke-width: 1.5;" width="150" x="609" y="520.3203"/><text fill="#000000" font-family="sans-serif" font-size="14" lengthAdjust="spacingAndGlyphs" textLength="136" x="616" y="540.3154">Infrastructure Cloud</text><rect fill="#FEFECE" filter="url(#f1)" height="30.2969" style="stroke: #A80036; stroke-width: 1.5;" width="44" x="773" y="33.2969"/><text fill="#000000" font-family="sans-serif" font-size="14" lengthAdjust="spacingAndGlyphs" textLength="30" x="780" y="53.292">DNS</text><rect fill="#FEFECE" filter="url(#f1)" height="30.2969" style="stroke: #A80036; stroke-width: 1.5;" width="44" x="773" y="520.3203"/><text fill="#000000" font-family="sans-serif" font-size="14" lengthAdjust="spacingAndGlyphs" textLength="30" x="780" y="540.3154">DNS</text><polygon fill="#FBFB77" filter="url(#f1)" points="165,83.5938,165,108.5938,568,108.5938,568,93.5938,558,83.5938,165,83.5938" style="stroke: #A80036; stroke-width: 1.0;"/><line style="stroke: #A80036; stroke-width: 1.0;" x1="558" x2="558" y1="83.5938" y2="93.5938"/><line style="stroke: #A80036; stroke-width: 1.0;" x1="568" x2="558" y1="93.5938" y2="93.5938"/><text fill="#000000" font-family="sans-serif" font-size="13" lengthAdjust="spacingAndGlyphs" textLength="382" x="171" y="100.6606">has an Image with credentials defined in Compute Resource</text><polygon fill="#A80036" points="357,134.7266,367,138.7266,357,142.7266,361,138.7266" style="stroke: #A80036; stroke-width: 1.0;"/><line style="stroke: #A80036; stroke-width: 1.0;" x1="33" x2="363" y1="138.7266" y2="138.7266"/><text fill="#000000" font-family="sans-serif" font-size="13" font-weight="bold" lengthAdjust="spacingAndGlyphs" textLength="9" x="40" y="133.7935">1</text><text fill="#000000" font-family="sans-serif" font-size="13" lengthAdjust="spacingAndGlyphs" textLength="119" x="53" y="133.7935">clicks on New Host</text><polygon fill="#288A01" points="357,163.8594,367,167.8594,357,171.8594,361,167.8594" style="stroke: #288A01; stroke-width: 1.0;"/><line style="stroke: #288A01; stroke-width: 1.0;" x1="33" x2="363" y1="167.8594" y2="167.8594"/><text fill="#000000" font-family="sans-serif" font-size="13" font-weight="bold" lengthAdjust="spacingAndGlyphs" textLength="9" x="40" y="162.9263">2</text><text fill="#000000" font-family="sans-serif" font-size="13" lengthAdjust="spacingAndGlyphs" textLength="299" x="53" y="162.9263">selects cloud resource, the image and submits</text><polygon fill="#288A01" points="674,192.9922,684,196.9922,674,200.9922,678,196.9922" style="stroke: #288A01; stroke-width: 1.0;"/><line style="stroke: #288A01; stroke-width: 1.0;" x1="369" x2="680" y1="196.9922" y2="196.9922"/><text fill="#000000" font-family="sans-serif" font-size="13" font-weight="bold" lengthAdjust="spacingAndGlyphs" textLength="9" x="376" y="192.0591">3</text><text fill="#000000" font-family="sans-serif" font-size="13" lengthAdjust="spacingAndGlyphs" textLength="135" x="389" y="192.0591">creates new instance</text><polygon fill="#288A01" points="380,222.125,370,226.125,380,230.125,376,226.125" style="stroke: #288A01; stroke-width: 1.0;"/><line style="stroke: #288A01; stroke-width: 1.0;" x1="374" x2="685" y1="226.125" y2="226.125"/><text fill="#000000" font-family="sans-serif" font-size="13" font-weight="bold" lengthAdjust="spacingAndGlyphs" textLength="9" x="386" y="221.1919">4</text><text fill="#000000" font-family="sans-serif" font-size="13" lengthAdjust="spacingAndGlyphs" textLength="116" x="399" y="221.1919">reports IP address</text><polygon fill="#A80036" points="527,251.2578,537,255.2578,527,259.2578,531,255.2578" style="stroke: #A80036; stroke-width: 1.0;"/><line style="stroke: #A80036; stroke-width: 1.0;" x1="369" x2="533" y1="255.2578" y2="255.2578"/><text fill="#000000" font-family="sans-serif" font-size="13" font-weight="bold" lengthAdjust="spacingAndGlyphs" textLength="9" x="376" y="250.3247">5</text><text fill="#000000" font-family="sans-serif" font-size="13" lengthAdjust="spacingAndGlyphs" textLength="133" x="389" y="250.3247">creates DNS records</text><polygon fill="#A80036" points="785,280.3906,795,284.3906,785,288.3906,789,284.3906" style="stroke: #A80036; stroke-width: 1.0;"/><line style="stroke: #A80036; stroke-width: 1.0;" x1="539" x2="791" y1="284.3906" y2="284.3906"/><text fill="#000000" font-family="sans-serif" font-size="13" font-weight="bold" lengthAdjust="spacingAndGlyphs" textLength="9" x="546" y="279.4575">6</text><text fill="#000000" font-family="sans-serif" font-size="13" lengthAdjust="spacingAndGlyphs" textLength="139" x="559" y="279.4575">forwards DNS records</text><polygon fill="#288A01" points="674,309.5234,684,313.5234,674,317.5234,678,313.5234" style="stroke: #288A01; stroke-width: 1.0;"/><line style="stroke: #288A01; stroke-width: 1.0;" x1="369" x2="680" y1="313.5234" y2="313.5234"/><text fill="#000000" font-family="sans-serif" font-size="13" font-weight="bold" lengthAdjust="spacingAndGlyphs" textLength="9" x="376" y="308.5903">7</text><text fill="#000000" font-family="sans-serif" font-size="13" lengthAdjust="spacingAndGlyphs" textLength="120" x="389" y="308.5903">starts the instance</text><polygon fill="#FBFB77" filter="url(#f1)" points="108,326.6563,108,351.6563,185,351.6563,185,336.6563,175,326.6563,108,326.6563" style="stroke: #A80036; stroke-width: 1.0;"/><line style="stroke: #A80036; stroke-width: 1.0;" x1="175" x2="175" y1="326.6563" y2="336.6563"/><line style="stroke: #A80036; stroke-width: 1.0;" x1="185" x2="175" y1="336.6563" y2="336.6563"/><text fill="#000000" font-family="sans-serif" font-size="13" lengthAdjust="spacingAndGlyphs" textLength="56" x="114" y="343.7231">boots up</text><polygon fill="#288A01" points="159.5,377.7891,149.5,381.7891,159.5,385.7891,155.5,381.7891" style="stroke: #288A01; stroke-width: 1.0;"/><line style="stroke: #288A01; stroke-width: 1.0;" x1="153.5" x2="368" y1="381.7891" y2="381.7891"/><text fill="#000000" font-family="sans-serif" font-size="13" font-weight="bold" lengthAdjust="spacingAndGlyphs" textLength="9" x="165.5" y="376.856">8</text><text fill="#000000" font-family="sans-serif" font-size="13" lengthAdjust="spacingAndGlyphs" textLength="182" x="178.5" y="376.856">executes finish script via ssh</text><polygon fill="#FBFB77" filter="url(#f1)" points="80,394.9219,80,419.9219,212,419.9219,212,404.9219,202,394.9219,80,394.9219" style="stroke: #A80036; stroke-width: 1.0;"/><line style="stroke: #A80036; stroke-width: 1.0;" x1="202" x2="202" y1="394.9219" y2="404.9219"/><line style="stroke: #A80036; stroke-width: 1.0;" x1="212" x2="202" y1="404.9219" y2="404.9219"/><text fill="#000000" font-family="sans-serif" font-size="13" lengthAdjust="spacingAndGlyphs" textLength="111" x="86" y="411.9888">puppet bootstrap</text><rect fill="#EEEEEE" filter="url(#f1)" height="3" style="stroke: #EEEEEE; stroke-width: 1.0;" width="823" x="3" y="449.6211"/><line style="stroke: #000000; stroke-width: 1.0;" x1="3" x2="826" y1="449.6211" y2="449.6211"/><line style="stroke: #000000; stroke-width: 1.0;" x1="3" x2="826" y1="452.6211" y2="452.6211"/><rect fill="#EEEEEE" filter="url(#f1)" height="23.1328" style="stroke: #000000; stroke-width: 2.0;" width="109" x="360" y="439.0547"/><text fill="#000000" font-family="sans-serif" font-size="13" font-weight="bold" lengthAdjust="spacingAndGlyphs" textLength="90" x="366" y="455.1216">Finish script</text><polygon fill="#FBFB77" filter="url(#f1)" points="60,477.1875,60,502.1875,232,502.1875,232,487.1875,222,477.1875,60,477.1875" style="stroke: #A80036; stroke-width: 1.0;"/><line style="stroke: #A80036; stroke-width: 1.0;" x1="222" x2="222" y1="477.1875" y2="487.1875"/><line style="stroke: #A80036; stroke-width: 1.0;" x1="232" x2="222" y1="487.1875" y2="487.1875"/><text fill="#000000" font-family="sans-serif" font-size="13" lengthAdjust="spacingAndGlyphs" textLength="151" x="66" y="494.2544">build mode is turned off</text></g></svg>