<?xml version="1.0" encoding="UTF-8" standalone="yes"?><svg xmlns="http://www.w3.org/2000/svg" xmlns:xlink="http://www.w3.org/1999/xlink" height="520px" style="width:831px;height:520px;" version="1.1" viewBox="0 0 831 520" width="831px"><defs><filter height="300%" id="f1" width="300%" x="-1" y="-1"><feGaussianBlur result="blurOut" stdDeviation="2.0"/><feColorMatrix in="blurOut" result="blurOut2" type="matrix" values="0 0 0 0 0 0 0 0 0 0 0 0 0 0 0 0 0 0 .4 0"/><feOffset dx="4.0" dy="4.0" in="blurOut2" result="blurOut3"/><feBlend in="SourceGraphic" in2="blurOut3" mode="normal"/></filter></defs><g><text fill="#000000" font-family="sans-serif" font-size="14" font-weight="bold" lengthAdjust="spacingAndGlyphs" textLength="306" x="261.5" y="22.9951">Cloud-based provisioning via cloud-init</text><line style="stroke: #A80036; stroke-width: 1.0; stroke-dasharray: 5.0,5.0;" x1="33" x2="33" y1="68.5938" y2="482.1875"/><line style="stroke: #A80036; stroke-width: 1.0; stroke-dasharray: 5.0,5.0;" x1="148" x2="148" y1="68.5938" y2="482.1875"/><line style="stroke: #A80036; stroke-width: 1.0; stroke-dasharray: 5.0,5.0;" x1="368.5" x2="368.5" y1="68.5938" y2="482.1875"/><line style="stroke: #A80036; stroke-width: 1.0; stroke-dasharray: 5.0,5.0;" x1="539" x2="539" y1="68.5938" y2="482.1875"/><line style="stroke: #A80036; stroke-width: 1.0; stroke-dasharray: 5.0,5.0;" x1="686" x2="686" y1="68.5938" y2="482.1875"/><line style="stroke: #A80036; stroke-width: 1.0; stroke-dasharray: 5.0,5.0;" x1="797" x2="797" y1="68.5938" y2="482.1875"/><rect fill="#FEFECE" filter="url(#f1)" height="30.2969" style="stroke: #A80036; stroke-width: 1.5;" width="46" x="8" y="33.2969"/><text fill="#000000" font-family="sans-serif" font-size="14" lengthAdjust="spacingAndGlyphs" textLength="32" x="15" y="53.292">User</text><rect fill="#FEFECE" filter="url(#f1)" height="30.2969" style="stroke: #A80036; stroke-width: 1.5;" width="46" x="8" y="481.1875"/><text fill="#000000" font-family="sans-serif" font-size="14" lengthAdjust="spacingAndGlyphs" textLength="32" x="15" y="501.1826">User</text><rect fill="#FEFECE" filter="url(#f1)" height="30.2969" style="stroke: #A80036; stroke-width: 1.5;" width="157" x="68" y="33.2969"/><text fill="#000000" font-family="sans-serif" font-size="14" lengthAdjust="spacingAndGlyphs" textLength="143" x="75" y="53.292">Provisioned Instance</text><rect fill="#FEFECE" filter="url(#f1)" height="30.2969" style="stroke: #A80036; stroke-width: 1.5;" width="157" x="68" y="481.1875"/><text fill="#000000" font-family="sans-serif" font-size="14" lengthAdjust="spacingAndGlyphs" textLength="143" x="75" y="501.1826">Provisioned Instance</text><rect fill="#FEFECE" filter="url(#f1)" height="30.2969" style="stroke: #A80036; stroke-width: 1.5;" width="75" x="329.5" y="33.2969"/><text fill="#000000" font-family="sans-serif" font-size="14" lengthAdjust="spacingAndGlyphs" textLength="61" x="336.5" y="53.292">Foreman</text><rect fill="#FEFECE" filter="url(#f1)" height="30.2969" style="stroke: #A80036; stroke-width: 1.5;" width="75" x="329.5" y="481.1875"/><text fill="#000000" font-family="sans-serif" font-size="14" lengthAdjust="spacingAndGlyphs" textLength="61" x="336.5" y="501.1826">Foreman</text><rect fill="#FEFECE" filter="url(#f1)" height="30.2969" style="stroke: #A80036; stroke-width: 1.5;" width="116" x="479" y="33.2969"/><text fill="#000000" font-family="sans-serif" font-size="14" lengthAdjust="spacingAndGlyphs" textLength="102" x="486" y="53.292">Foreman Proxy</text><rect fill="#FEFECE" filter="url(#f1)" height="30.2969" style="stroke: #A80036; stroke-width: 1.5;" width="116" x="479" y="481.1875"/><text fill="#000000" font-family="sans-serif" font-size="14" lengthAdjust="spacingAndGlyphs" textLength="102" x="486" y="501.1826">Foreman Proxy</text><rect fill="#FEFECE" filter="url(#f1)" height="30.2969" style="stroke: #A80036; stroke-width: 1.5;" width="150" x="609" y="33.2969"/><text fill="#000000" font-family="sans-serif" font-size="14" lengthAdjust="spacingAndGlyphs" textLength="136" x="616" y="53.292">Infrastructure Cloud</text><rect fill="#FEFECE" filter="url(#f1)" height="30.2969" style="stroke: #A80036; stroke-width: 1.5;" width="150" x="609" y="481.1875"/><text fill="#000000" font-family="sans-serif" font-size="14" lengthAdjust="spacingAndGlyphs" textLength="136" x="616" y="501.1826">Infrastructure Cloud</text><rect fill="#FEFECE" filter="url(#f1)" height="30.2969" style="stroke: #A80036; stroke-width: 1.5;" width="44" x="773" y="33.2969"/><text fill="#000000" font-family="sans-serif" font-size="14" lengthAdjust="spacingAndGlyphs" textLength="30" x="780" y="53.292">DNS</text><rect fill="#FEFECE" filter="url(#f1)" height="30.2969" style="stroke: #A80036; stroke-width: 1.5;" width="44" x="773" y="481.1875"/><text fill="#000000" font-family="sans-serif" font-size="14" lengthAdjust="spacingAndGlyphs" textLength="30" x="780" y="501.1826">DNS</text><polygon fill="#FBFB77" filter="url(#f1)" points="254,83.5938,254,108.5938,480,108.5938,480,93.5938,470,83.5938,254,83.5938" style="stroke: #A80036; stroke-width: 1.0;"/><line style="stroke: #A80036; stroke-width: 1.0;" x1="470" x2="470" y1="83.5938" y2="93.5938"/><line style="stroke: #A80036; stroke-width: 1.0;" x1="480" x2="470" y1="93.5938" y2="93.5938"/><text fill="#000000" font-family="sans-serif" font-size="13" lengthAdjust="spacingAndGlyphs" textLength="205" x="260" y="100.6606">has an Image with cloud-init flag</text><polygon fill="#A80036" points="357,134.7266,367,138.7266,357,142.7266,361,138.7266" style="stroke: #A80036; stroke-width: 1.0;"/><line style="stroke: #A80036; stroke-width: 1.0;" x1="33" x2="363" y1="138.7266" y2="138.7266"/><text fill="#000000" font-family="sans-serif" font-size="13" font-weight="bold" lengthAdjust="spacingAndGlyphs" textLength="9" x="40" y="133.7935">1</text><text fill="#000000" font-family="sans-serif" font-size="13" lengthAdjust="spacingAndGlyphs" textLength="119" x="53" y="133.7935">clicks on New Host</text><polygon fill="#288A01" points="357,163.8594,367,167.8594,357,171.8594,361,167.8594" style="stroke: #288A01; stroke-width: 1.0;"/><line style="stroke: #288A01; stroke-width: 1.0;" x1="33" x2="363" y1="167.8594" y2="167.8594"/><text fill="#000000" font-family="sans-serif" font-size="13" font-weight="bold" lengthAdjust="spacingAndGlyphs" textLength="9" x="40" y="162.9263">2</text><text fill="#000000" font-family="sans-serif" font-size="13" lengthAdjust="spacingAndGlyphs" textLength="299" x="53" y="162.9263">selects cloud resource, the image and submits</text><polygon fill="#288A01" points="674,192.9922,684,196.9922,674,200.9922,678,196.9922" style="stroke: #288A01; stroke-width: 1.0;"/><line style="stroke: #288A01; stroke-width: 1.0;" x1="369" x2="680" y1="196.9922" y2="196.9922"/><text fill="#000000" font-family="sans-serif" font-size="13" font-weight="bold" lengthAdjust="spacingAndGlyphs" textLength="9" x="376" y="192.0591">3</text><text fill="#000000" font-family="sans-serif" font-size="13" lengthAdjust="spacingAndGlyphs" textLength="253" x="389" y="192.0591">creates new instance with cloud-init info</text><polygon fill="#288A01" points="380,222.125,370,226.125,380,230.125,376,226.125" style="stroke: #288A01; stroke-width: 1.0;"/><line style="stroke: #288A01; stroke-width: 1.0;" x1="374" x2="685" y1="226.125" y2="226.125"/><text fill="#000000" font-family="sans-serif" font-size="13" font-weight="bold" lengthAdjust="spacingAndGlyphs" textLength="9" x="386" y="221.1919">4</text><text fill="#000000" font-family="sans-serif" font-size="13" lengthAdjust="spacingAndGlyphs" textLength="116" x="399" y="221.1919">reports IP address</text><polygon fill="#A80036" points="527,251.2578,537,255.2578,527,259.2578,531,255.2578" style="stroke: #A80036; stroke-width: 1.0;"/><line style="stroke: #A80036; stroke-width: 1.0;" x1="369" x2="533" y1="255.2578" y2="255.2578"/><text fill="#000000" font-family="sans-serif" font-size="13" font-weight="bold" lengthAdjust="spacingAndGlyphs" textLength="9" x="376" y="250.3247">5</text><text fill="#000000" font-family="sans-serif" font-size="13" lengthAdjust="spacingAndGlyphs" textLength="133" x="389" y="250.3247">creates DNS records</text><polygon fill="#A80036" points="785,280.3906,795,284.3906,785,288.3906,789,284.3906" style="stroke: #A80036; stroke-width: 1.0;"/><line style="stroke: #A80036; stroke-width: 1.0;" x1="539" x2="791" y1="284.3906" y2="284.3906"/><text fill="#000000" font-family="sans-serif" font-size="13" font-weight="bold" lengthAdjust="spacingAndGlyphs" textLength="9" x="546" y="279.4575">6</text><text fill="#000000" font-family="sans-serif" font-size="13" lengthAdjust="spacingAndGlyphs" textLength="139" x="559" y="279.4575">forwards DNS records</text><polygon fill="#A80036" points="674,309.5234,684,313.5234,674,317.5234,678,313.5234" style="stroke: #A80036; stroke-width: 1.0;"/><line style="stroke: #A80036; stroke-width: 1.0;" x1="369" x2="680" y1="313.5234" y2="313.5234"/><text fill="#000000" font-family="sans-serif" font-size="13" font-weight="bold" lengthAdjust="spacingAndGlyphs" textLength="9" x="376" y="308.5903">7</text><text fill="#000000" font-family="sans-serif" font-size="13" lengthAdjust="spacingAndGlyphs" textLength="120" x="389" y="308.5903">starts the instance</text><polygon fill="#FBFB77" filter="url(#f1)" points="108,326.6563,108,351.6563,185,351.6563,185,336.6563,175,326.6563,108,326.6563" style="stroke: #A80036; stroke-width: 1.0;"/><line style="stroke: #A80036; stroke-width: 1.0;" x1="175" x2="175" y1="326.6563" y2="336.6563"/><line style="stroke: #A80036; stroke-width: 1.0;" x1="185" x2="175" y1="336.6563" y2="336.6563"/><text fill="#000000" font-family="sans-serif" font-size="13" lengthAdjust="spacingAndGlyphs" textLength="56" x="114" y="343.7231">boots up</text><rect fill="#EEEEEE" filter="url(#f1)" height="3" style="stroke: #EEEEEE; stroke-width: 1.0;" width="823" x="3" y="381.3555"/><line style="stroke: #000000; stroke-width: 1.0;" x1="3" x2="826" y1="381.3555" y2="381.3555"/><line style="stroke: #000000; stroke-width: 1.0;" x1="3" x2="826" y1="384.3555" y2="384.3555"/><rect fill="#EEEEEE" filter="url(#f1)" height="23.1328" style="stroke: #000000; stroke-width: 2.0;" width="136" x="346.5" y="370.7891"/><text fill="#000000" font-family="sans-serif" font-size="13" font-weight="bold" lengthAdjust="spacingAndGlyphs" textLength="117" x="352.5" y="386.856">Cloud-init script</text><polygon fill="#FBFB77" filter="url(#f1)" points="80,408.9219,80,433.9219,212,433.9219,212,418.9219,202,408.9219,80,408.9219" style="stroke: #A80036; stroke-width: 1.0;"/><line style="stroke: #A80036; stroke-width: 1.0;" x1="202" x2="202" y1="408.9219" y2="418.9219"/><line style="stroke: #A80036; stroke-width: 1.0;" x1="212" x2="202" y1="418.9219" y2="418.9219"/><text fill="#000000" font-family="sans-serif" font-size="13" lengthAdjust="spacingAndGlyphs" textLength="111" x="86" y="425.9888">puppet bootstrap</text><polygon fill="#288A01" points="357,460.0547,367,464.0547,357,468.0547,361,464.0547" style="stroke: #288A01; stroke-width: 1.0;"/><line style="stroke: #288A01; stroke-width: 1.0;" x1="148.5" x2="363" y1="464.0547" y2="464.0547"/><text fill="#000000" font-family="sans-serif" font-size="13" font-weight="bold" lengthAdjust="spacingAndGlyphs" textLength="9" x="155.5" y="459.1216">8</text><text fill="#000000" font-family="sans-serif" font-size="13" lengthAdjust="spacingAndGlyphs" textLength="128" x="168.5" y="459.1216">turns off build mode</text></g></svg>